<svg xmlns="http://www.w3.org/2000/svg" viewBox="0 0 420.06 118.04"><defs><style>.cls-1{fill:#fff;}.cls-2{fill:#1cb9da;}</style></defs><g id="Layer_2" data-name="Layer 2"><g id="Layer_1-2" data-name="Layer 1">
<path class="cls-1" d="M76.3,29.23a2.94,2.94,0,0,0-2.75,1.86l-30.08,74-30.22-74a3,3,0,0,0-2.76-1.86H0L36.36,117.4H49.81L86.37,29.23Z"/>
<path class="cls-1" d="M173.16,41.86Q160.8,29.25,139.87,29.23T106.58,41.86Q94.19,54.49,94.2,73.64c0,.78,0,1.55,0,2.31h12.06c0-.76,0-1.53,0-2.31q0-15.35,9.13-24.86t24.48-9.51q15.47,0,24.53,9.51t9.08,24.86c0,.78,0,1.55,0,2.31h12c0-.76.05-1.53.05-2.31Q185.53,54.49,173.16,41.86Z"/>
<path class="cls-1" d="M277.18,41.86q-12.37-12.61-33.3-12.63T210.59,41.86q-12.36,12.63-12.38,31.78c0,.78,0,1.55,0,2.31h12.06c0-.76,0-1.53,0-2.31q0-15.35,9.13-24.86t24.48-9.51q15.48,0,24.55,9.51t9.07,24.86c0,.78,0,1.55-.05,2.31H289.5c0-.76,0-1.53,0-2.31Q289.54,54.49,277.18,41.86Z"/>
<path class="cls-1" d="M381.19,41.86Q368.82,29.25,347.9,29.23T314.6,41.86q-12.36,12.63-12.38,31.78c0,.78,0,1.55,0,2.31h12.06c0-.76,0-1.53,0-2.31q0-15.35,9.12-24.86t24.49-9.51q15.48,0,24.54,9.51t9.07,24.86q0,15.47-9.07,24.93T347.9,108c-1.39,0-2.76-.06-4.06-.18V117.9c1.32.09,2.67.14,4.06.14q20.94,0,33.29-12.57t12.38-31.83Q393.57,54.49,381.19,41.86Z"/>
<path class="cls-2" d="M53.86,47.87l8.37-18.63H52.07a3.21,3.21,0,0,0-2.92,1.89l-3.73,8.3Z"/>
<path class="cls-2" d="M40.24,39.43l-3.73-8.3a3.21,3.21,0,0,0-2.92-1.89H23.43L31.8,47.87Z"/>
<polygon class="cls-2" points="42.83 45.21 34.39 53.64 42.83 72.43 51.27 53.65 42.83 45.21"/>
<path class="cls-2" d="M406.17,47.18c18.25-4.7,13.27-22.85,13.27-22.85-9.95,13.36-18.06,9.12-18.06,9.12C423.58,20.56,418.4,0,418.4,0,405,18,387.82,13.22,387.82,13.22c.32,6.85-4.77,10.83-9.23,9.08s1.75-9.08,1.75-9.08c-18.18,1.43-26.72,6.56-29.26,8.41l1,0q22.51,0,35.81,13.58t13.32,34.18a58.27,58.27,0,0,1-.66,8.8c12.52-16.7,11.34-24.72,11.34-24.72-4.42,4.79-12.35,3.31-11.89-1.39S406.17,47.18,406.17,47.18Z"/>
<path class="cls-1" d="M115.91,88.88a14.34,14.34,0,0,1,5.8,5.51,15.7,15.7,0,0,1,2.07,8.08,15.43,15.43,0,0,1-2.11,8.07,14.59,14.59,0,0,1-5.89,5.52,18.36,18.36,0,0,1-8.63,2h-13V86.9h13.21A17.86,17.86,0,0,1,115.91,88.88Zm-3.67,22a8.47,8.47,0,0,0,3.22-3.41,11.12,11.12,0,0,0-.06-10A8.78,8.78,0,0,0,112.06,94a9.32,9.32,0,0,0-4.78-1.23h-6v19.31h6.36A9,9,0,0,0,112.24,110.9Z"/><path class="cls-1" d="M155.45,86.9v5.82H138.77v6.77h15v5.82h-15v6.9h17.17V118h-24.2V86.9Z"/><path class="cls-1" d="M171.82,86.9v25h13.35V118H164.79V86.9Z"/><path class="cls-1" d="M199.71,86.9V118h-7V86.9Z"/><path class="cls-1" d="M214.08,86.9l8.5,23.48,8.54-23.48h7.25L226,118h-7.25L206.52,86.9Z"/><path class="cls-1" d="M268.84,86.9v5.82H252.16v6.77h15v5.82h-15v6.9h17.17V118h-24.2V86.9Z"/>
<path class="cls-1" d="M297.3,118l-4.93-8.9h-7.16V118h-7V86.9H291.7q6.09,0,9.43,2.82a9.92,9.92,0,0,1,3.34,8,12.09,12.09,0,0,1-1.49,6.16,9.63,9.63,0,0,1-4.34,3.89L305.27,118Zm-12.09-14.77h6.49a6.72,6.72,0,0,0,4.52-1.36,5,5,0,0,0,1.57-4A4.76,4.76,0,0,0,296.22,94a6.88,6.88,0,0,0-4.52-1.32h-6.49Z"/>
<path class="cls-1" d="M328.4,108V118h-7v-9.88L309.85,86.9h7.07l8,14,7.79-14h7.07Z"/></g></g></svg>